<?xml version="1.0" encoding="UTF-8" standalone="no"?>
<svg
   xmlns:dc="http://purl.org/dc/elements/1.1/"
   xmlns:cc="http://creativecommons.org/ns#"
   xmlns:rdf="http://www.w3.org/1999/02/22-rdf-syntax-ns#"
   xmlns:svg="http://www.w3.org/2000/svg"
   xmlns="http://www.w3.org/2000/svg"
   xmlns:sodipodi="http://sodipodi.sourceforge.net/DTD/sodipodi-0.dtd"
   xmlns:inkscape="http://www.inkscape.org/namespaces/inkscape"
   width="64"
   height="64"
   version="1.1"
   id="svg677"
   sodipodi:docname="icon.svg"
   inkscape:version="0.92.5 (2060ec1f9f, 2020-04-08)">
  <metadata
     id="metadata683">
    <rdf:RDF>
      <cc:Work
         rdf:about="">
        <dc:format>image/svg+xml</dc:format>
        <dc:type
           rdf:resource="http://purl.org/dc/dcmitype/StillImage" />
      </cc:Work>
    </rdf:RDF>
  </metadata>
  <defs
     id="defs681">
    <inkscape:perspective
       sodipodi:type="inkscape:persp3d"
       inkscape:vp_x="-5.0493097 : 20.512821 : 1"
       inkscape:vp_y="0 : 1000 : 0"
       inkscape:vp_z="64 : 32 : 1"
       inkscape:persp3d-origin="32 : 21.333333 : 1"
       id="perspective685" />
  </defs>
  <sodipodi:namedview
     pagecolor="#ffffff"
     bordercolor="#666666"
     borderopacity="1"
     objecttolerance="10"
     gridtolerance="10"
     guidetolerance="10"
     inkscape:pageopacity="0"
     inkscape:pageshadow="2"
     inkscape:window-width="1280"
     inkscape:window-height="735"
     id="namedview679"
     showgrid="false"
     showguides="false"
     inkscape:zoom="7.921875"
     inkscape:cx="32"
     inkscape:cy="32.042356"
     inkscape:window-x="0"
     inkscape:window-y="0"
     inkscape:window-maximized="1"
     inkscape:current-layer="svg677" />
  <g
     id="g723"
     transform="translate(37.869822,28.654832)">
    <path
       d="M 2.0197239,0.25246549 C 2.4880782,-0.24753384 2.9247825,0.63711577 2.8507557,1.0309012 2.6501475,2.0980355 1.2986935,2.3126945 0.46285243,1.914529 -1.0322711,1.2023043 -1.2690311,-0.76632917 -0.47337141,-2.0828417 0.6942912,-4.0148768 3.3513791,-4.2775557 5.1334668,-3.0716616 7.5087095,-1.4643944 7.7964036,1.9023117 6.1748827,4.1446442 4.1343642,6.9663908 0.04915309,7.2785857 -2.6508905,5.2386561 -5.9210051,2.768028 -6.2574465,-2.0402557 -3.7974985,-5.1965846 -0.89853487,-8.9162092 4.6354838,-9.2767654 8.2472098,-6.3957887 12.41709,-3.069587 12.801689,3.1918575 9.4990098,7.2583871 5.7462955,11.879036 -1.2437167,12.287637 -5.7646334,8.5627832 -10.836419,4.3840602 -11.268996,-3.3353278 -7.1216256,-8.3103276 -2.5172584,-13.83352 5.9320987,-14.290059 11.360953,-9.7199157"
       sodipodi:t0="0"
       sodipodi:argument="-19.667622"
       sodipodi:radius="13.664075"
       sodipodi:revolution="3"
       sodipodi:expansion="1"
       sodipodi:cy="0.25246549"
       sodipodi:cx="2.0197239"
       id="path715"
       style="fill:none;fill-rule:evenodd;stroke:#000000"
       sodipodi:type="spiral" />
    <path
       d="m -9.0887575,-6.8165679 c 1.0253158,-0.14557 0.7020801,1.3102861 0.2419469,1.7041423 -1.2469324,1.067326 -3.0425024,0.040412 -3.6502314,-1.2202484 -1.087084,-2.2550265 0.498258,-4.79869 2.6824436,-5.596321 3.2053801,-1.170556 6.5847281,1.036215 7.5424102,4.1446393 1.27643957,4.1430411 -1.5728656,8.38215328 -5.6068346,9.4884994 -5.0763382,1.3922237 -10.1851982,-2.10863807 -11.4345882,-7.0690299 -1.51318,-6.0076988 2.643864,-11.9914478 8.531225,-13.3806778 6.938051,-1.63716 13.7996998,3.178741 15.3267671,9.9934205 C 6.3074407,-0.88432679 0.8309946,6.8571464 -6.911235,8.520713 c -8.797213,1.89025 -17.419817,-4.2478703 -19.218946,-12.9178114 -2.01835,-9.7263636 4.782239,-19.2310266 14.380007,-21.1650346 10.6553418,-2.147116 21.0427488,5.316521 23.111124,15.8422017"
       sodipodi:t0="0"
       sodipodi:argument="-18.990589"
       sodipodi:radius="20.654783"
       sodipodi:revolution="3"
       sodipodi:expansion="1"
       sodipodi:cy="-6.8165679"
       sodipodi:cx="-9.0887575"
       id="path719"
       style="fill:none;fill-rule:evenodd;stroke:#000000"
       sodipodi:type="spiral" />
  </g>
  <ellipse
     style="fill:#0000ff;stroke-width:0.70547563"
     id="path729"
     cx="30.169626"
     cy="20.575937"
     rx="13.633137"
     ry="12.497042" />
  <g
     transform="translate(37.869822,28.654832)"
     id="g737">
    <path
       sodipodi:type="spiral"
       style="fill:none;fill-rule:evenodd;stroke:#000000"
       id="path733"
       sodipodi:cx="2.0197239"
       sodipodi:cy="0.25246549"
       sodipodi:expansion="1"
       sodipodi:revolution="3"
       sodipodi:radius="13.664075"
       sodipodi:argument="-19.667622"
       sodipodi:t0="0"
       d="M 2.0197239,0.25246549 C 2.4880782,-0.24753384 2.9247825,0.63711577 2.8507557,1.0309012 2.6501475,2.0980355 1.2986935,2.3126945 0.46285243,1.914529 -1.0322711,1.2023043 -1.2690311,-0.76632917 -0.47337141,-2.0828417 0.6942912,-4.0148768 3.3513791,-4.2775557 5.1334668,-3.0716616 7.5087095,-1.4643944 7.7964036,1.9023117 6.1748827,4.1446442 4.1343642,6.9663908 0.04915309,7.2785857 -2.6508905,5.2386561 -5.9210051,2.768028 -6.2574465,-2.0402557 -3.7974985,-5.1965846 -0.89853487,-8.9162092 4.6354838,-9.2767654 8.2472098,-6.3957887 12.41709,-3.069587 12.801689,3.1918575 9.4990098,7.2583871 5.7462955,11.879036 -1.2437167,12.287637 -5.7646334,8.5627832 -10.836419,4.3840602 -11.268996,-3.3353278 -7.1216256,-8.3103276 -2.5172584,-13.83352 5.9320987,-14.290059 11.360953,-9.7199157" />
    <path
       sodipodi:type="spiral"
       style="fill:none;fill-rule:evenodd;stroke:#000000"
       id="path735"
       sodipodi:cx="-9.0887575"
       sodipodi:cy="-6.8165679"
       sodipodi:expansion="1"
       sodipodi:revolution="3"
       sodipodi:radius="20.654783"
       sodipodi:argument="-18.990589"
       sodipodi:t0="0"
       d="m -9.0887575,-6.8165679 c 1.0253158,-0.14557 0.7020801,1.3102861 0.2419469,1.7041423 -1.2469324,1.067326 -3.0425024,0.040412 -3.6502314,-1.2202484 -1.087084,-2.2550265 0.498258,-4.79869 2.6824436,-5.596321 3.2053801,-1.170556 6.5847281,1.036215 7.5424102,4.1446393 1.27643957,4.1430411 -1.5728656,8.38215328 -5.6068346,9.4884994 -5.0763382,1.3922237 -10.1851982,-2.10863807 -11.4345882,-7.0690299 -1.51318,-6.0076988 2.643864,-11.9914478 8.531225,-13.3806778 6.938051,-1.63716 13.7996998,3.178741 15.3267671,9.9934205 C 6.3074407,-0.88432679 0.8309946,6.8571464 -6.911235,8.520713 c -8.797213,1.89025 -17.419817,-4.2478703 -19.218946,-12.9178114 -2.01835,-9.7263636 4.782239,-19.2310266 14.380007,-21.1650346 10.6553418,-2.147116 21.0427488,5.316521 23.111124,15.8422017" />
  </g>
</svg>
